<?xml version="1.0" encoding="utf-8" ?>
<!DOCTYPE svg PUBLIC "-//W3C//DTD SVG 1.1//EN" "http://www.w3.org/Graphics/SVG/1.1/DTD/svg11.dtd">
<svg height="776" version="1.1" width="1678" xmlns="http://www.w3.org/2000/svg">
<text font-family="Dialog" font-size="12" x="326" y="249">
User</text>
<ellipse cx="340" cy="197" fill="#000000" rx="8.0" ry="7.5" stroke="#000000" stroke-width="1"/>
<ellipse cx="340" cy="197" fill="#ffffff" rx="7.0" ry="6.5" stroke="#ffffff" stroke-width="1"/>
<line fill="#000000" stroke="#000000" stroke-width="1" x1="340" x2="340" y1="205" y2="220"/>
<line fill="#000000" stroke="#000000" stroke-width="1" x1="330" x2="350" y1="210" y2="210"/>
<line fill="#000000" stroke="#000000" stroke-width="1" x1="340" x2="335" y1="220" y2="235"/>
<line fill="#000000" stroke="#000000" stroke-width="1" x1="340" x2="345" y1="220" y2="235"/>
<ellipse cx="197" cy="217" fill="#000000" rx="55.0" ry="21.0" stroke="#000000" stroke-width="1"/>
<ellipse cx="197" cy="217" fill="#ffffff" rx="54.0" ry="20.0" stroke="#ffffff" stroke-width="1"/>
<text font-family="Dialog" font-size="12" x="181" y="218">
Login</text>
<polyline fill="none" points="251,214 330,210" stroke="#000000" stroke-width="1"/>
<ellipse cx="69" cy="161" fill="#000000" rx="55.0" ry="21.0" stroke="#000000" stroke-width="1"/>
<ellipse cx="69" cy="161" fill="#ffffff" rx="54.0" ry="20.0" stroke="#ffffff" stroke-width="1"/>
<text font-family="Dialog" font-size="12" x="32" y="162">
Login with FB</text>
<line fill="#000000" stroke="#000000" stroke-width="1" x1="161" x2="157" y1="201" y2="199"/>
<line fill="#000000" stroke="#000000" stroke-width="1" x1="152" x2="148" y1="197" y2="195"/>
<line fill="#000000" stroke="#000000" stroke-width="1" x1="143" x2="139" y1="193" y2="191"/>
<line fill="#000000" stroke="#000000" stroke-width="1" x1="134" x2="129" y1="189" y2="187"/>
<line fill="#000000" stroke="#000000" stroke-width="1" x1="125" x2="120" y1="185" y2="183"/>
<line fill="#000000" stroke="#000000" stroke-width="1" x1="116" x2="111" y1="181" y2="179"/>
<line fill="#000000" stroke="#000000" stroke-width="1" x1="106" x2="105" y1="177" y2="176"/>
<line fill="#000000" stroke="#000000" stroke-width="1" x1="118" x2="105" y1="174" y2="176"/>
<line fill="#000000" stroke="#000000" stroke-width="1" x1="113" x2="105" y1="187" y2="176"/>
<text font-family="Dialog" font-size="12" x="132" y="164">
&lt;&lt;extend&gt;&gt;</text>
<ellipse cx="69" cy="281" fill="#000000" rx="55.0" ry="21.0" stroke="#000000" stroke-width="1"/>
<ellipse cx="69" cy="281" fill="#ffffff" rx="54.0" ry="20.0" stroke="#ffffff" stroke-width="1"/>
<text font-family="Dialog" font-size="12" x="45" y="282">
Register</text>
<line fill="#000000" stroke="#000000" stroke-width="1" x1="163" x2="159" y1="233" y2="235"/>
<line fill="#000000" stroke="#000000" stroke-width="1" x1="155" x2="150" y1="237" y2="239"/>
<line fill="#000000" stroke="#000000" stroke-width="1" x1="146" x2="141" y1="241" y2="244"/>
<line fill="#000000" stroke="#000000" stroke-width="1" x1="137" x2="132" y1="246" y2="248"/>
<line fill="#000000" stroke="#000000" stroke-width="1" x1="128" x2="123" y1="250" y2="253"/>
<line fill="#000000" stroke="#000000" stroke-width="1" x1="119" x2="114" y1="255" y2="257"/>
<line fill="#000000" stroke="#000000" stroke-width="1" x1="110" x2="105" y1="259" y2="262"/>
<line fill="#000000" stroke="#000000" stroke-width="1" x1="108" x2="101" y1="252" y2="264"/>
<line fill="#000000" stroke="#000000" stroke-width="1" x1="114" x2="101" y1="264" y2="264"/>
<text font-family="Dialog" font-size="12" x="87" y="216">
&lt;&lt;extend&gt;&gt;</text>
<text font-family="Dialog" font-size="12" x="939" y="241">
Reviewer</text>
<ellipse cx="964" cy="189" fill="#000000" rx="8.0" ry="7.5" stroke="#000000" stroke-width="1"/>
<ellipse cx="964" cy="189" fill="#ffffff" rx="7.0" ry="6.5" stroke="#ffffff" stroke-width="1"/>
<line fill="#000000" stroke="#000000" stroke-width="1" x1="964" x2="964" y1="197" y2="212"/>
<line fill="#000000" stroke="#000000" stroke-width="1" x1="954" x2="974" y1="202" y2="202"/>
<line fill="#000000" stroke="#000000" stroke-width="1" x1="964" x2="959" y1="212" y2="227"/>
<line fill="#000000" stroke="#000000" stroke-width="1" x1="964" x2="969" y1="212" y2="227"/>
<polyline fill="none" points="954,202 350,210" stroke="#333399" stroke-width="1"/>
<polygon fill="#ffffff" points="350,210 361,202 362,216" stroke="#ffffff" stroke-width="1"/>
<polygon fill="none" points="350,210 361,202 362,216" stroke="#333399" stroke-width="1"/>
<ellipse cx="652" cy="203" fill="#000000" rx="0.5" ry="0.5" stroke="#000000" stroke-width="1"/>
<ellipse cx="653" cy="204" fill="#ffffff" rx="-0.5" ry="-0.5" stroke="#ffffff" stroke-width="1"/>
<ellipse cx="829" cy="65" fill="#000000" rx="55.0" ry="21.0" stroke="#000000" stroke-width="1"/>
<ellipse cx="829" cy="65" fill="#ffffff" rx="54.0" ry="20.0" stroke="#ffffff" stroke-width="1"/>
<text font-family="Dialog" font-size="12" x="810" y="66">
Logout</text>
<polyline fill="none" points="849,84 956,184" stroke="#000000" stroke-width="1"/>
<ellipse cx="999" cy="45" fill="#000000" rx="73.0" ry="25.0" stroke="#000000" stroke-width="1"/>
<ellipse cx="999" cy="45" fill="#ffffff" rx="72.0" ry="24.0" stroke="#ffffff" stroke-width="1"/>
<text font-family="Dialog" font-size="12" x="940" y="46">
View Personal Profile</text>
<polyline fill="none" points="966,181 992,69" stroke="#000000" stroke-width="1"/>
<ellipse cx="1179" cy="68" fill="#000000" rx="69.0" ry="24.0" stroke="#000000" stroke-width="1"/>
<ellipse cx="1179" cy="68" fill="#ffffff" rx="68.0" ry="23.0" stroke="#ffffff" stroke-width="1"/>
<text font-family="Dialog" font-size="12" x="1125" y="69">
Change Login Infos</text>
<line fill="#000000" stroke="#000000" stroke-width="1" x1="1067" x2="1072" y1="53" y2="53"/>
<line fill="#000000" stroke="#000000" stroke-width="1" x1="1077" x2="1082" y1="54" y2="54"/>
<line fill="#000000" stroke="#000000" stroke-width="1" x1="1087" x2="1092" y1="55" y2="56"/>
<line fill="#000000" stroke="#000000" stroke-width="1" x1="1097" x2="1102" y1="56" y2="57"/>
<line fill="#000000" stroke="#000000" stroke-width="1" x1="1107" x2="1112" y1="58" y2="58"/>
<line fill="#000000" stroke="#000000" stroke-width="1" x1="1101" x2="1114" y1="64" y2="59"/>
<line fill="#000000" stroke="#000000" stroke-width="1" x1="1102" x2="1114" y1="50" y2="59"/>
<text font-family="Dialog" font-size="12" x="1060" y="30">
&lt;&lt;extend&gt;&gt;</text>
<line fill="#000000" stroke="#000000" stroke-width="1" x1="929" x2="924" y1="52" y2="52"/>
<line fill="#000000" stroke="#000000" stroke-width="1" x1="919" x2="914" y1="53" y2="53"/>
<line fill="#000000" stroke="#000000" stroke-width="1" x1="909" x2="904" y1="54" y2="55"/>
<line fill="#000000" stroke="#000000" stroke-width="1" x1="899" x2="894" y1="55" y2="56"/>
<line fill="#000000" stroke="#000000" stroke-width="1" x1="889" x2="884" y1="57" y2="57"/>
<line fill="#000000" stroke="#000000" stroke-width="1" x1="892" x2="881" y1="49" y2="58"/>
<line fill="#000000" stroke="#000000" stroke-width="1" x1="893" x2="881" y1="63" y2="58"/>
<text font-family="Dialog" font-size="12" x="871" y="28">
&lt;&lt;extend&gt;&gt;</text>
<ellipse cx="879" cy="524" fill="#000000" rx="65.0" ry="24.0" stroke="#000000" stroke-width="1"/>
<ellipse cx="879" cy="524" fill="#ffffff" rx="64.0" ry="23.0" stroke="#ffffff" stroke-width="1"/>
<text font-family="Dialog" font-size="12" x="828" y="525">
View Movie Details</text>
<ellipse cx="589" cy="569" fill="#000000" rx="55.0" ry="21.0" stroke="#000000" stroke-width="1"/>
<ellipse cx="589" cy="569" fill="#ffffff" rx="54.0" ry="20.0" stroke="#ffffff" stroke-width="1"/>
<text font-family="Dialog" font-size="12" x="571" y="570">
Rating</text>
<ellipse cx="633" cy="695" fill="#000000" rx="51.0" ry="19.0" stroke="#000000" stroke-width="1"/>
<ellipse cx="633" cy="695" fill="#ffffff" rx="50.0" ry="18.0" stroke="#ffffff" stroke-width="1"/>
<text font-family="Dialog" font-size="12" x="605" y="696">
Comment</text>
<ellipse cx="789" cy="737" fill="#000000" rx="55.0" ry="21.0" stroke="#000000" stroke-width="1"/>
<ellipse cx="789" cy="737" fill="#ffffff" rx="54.0" ry="20.0" stroke="#ffffff" stroke-width="1"/>
<text font-family="Dialog" font-size="12" x="758" y="738">
ViewTrailer</text>
<ellipse cx="1014" cy="739" fill="#000000" rx="64.0" ry="23.0" stroke="#000000" stroke-width="1"/>
<ellipse cx="1014" cy="739" fill="#ffffff" rx="63.0" ry="22.0" stroke="#ffffff" stroke-width="1"/>
<text font-family="Dialog" font-size="12" x="965" y="740">
View Actor Details</text>
<line fill="#000000" stroke="#000000" stroke-width="1" x1="819" x2="815" y1="533" y2="533"/>
<line fill="#000000" stroke="#000000" stroke-width="1" x1="810" x2="805" y1="534" y2="535"/>
<line fill="#000000" stroke="#000000" stroke-width="1" x1="800" x2="795" y1="536" y2="536"/>
<line fill="#000000" stroke="#000000" stroke-width="1" x1="790" x2="785" y1="537" y2="538"/>
<line fill="#000000" stroke="#000000" stroke-width="1" x1="780" x2="775" y1="539" y2="539"/>
<line fill="#000000" stroke="#000000" stroke-width="1" x1="770" x2="765" y1="540" y2="541"/>
<line fill="#000000" stroke="#000000" stroke-width="1" x1="760" x2="755" y1="542" y2="543"/>
<line fill="#000000" stroke="#000000" stroke-width="1" x1="750" x2="745" y1="543" y2="544"/>
<line fill="#000000" stroke="#000000" stroke-width="1" x1="740" x2="735" y1="545" y2="546"/>
<line fill="#000000" stroke="#000000" stroke-width="1" x1="730" x2="726" y1="546" y2="547"/>
<line fill="#000000" stroke="#000000" stroke-width="1" x1="721" x2="716" y1="548" y2="549"/>
<line fill="#000000" stroke="#000000" stroke-width="1" x1="711" x2="706" y1="549" y2="550"/>
<line fill="#000000" stroke="#000000" stroke-width="1" x1="701" x2="696" y1="551" y2="552"/>
<line fill="#000000" stroke="#000000" stroke-width="1" x1="691" x2="686" y1="553" y2="553"/>
<line fill="#000000" stroke="#000000" stroke-width="1" x1="681" x2="676" y1="554" y2="555"/>
<line fill="#000000" stroke="#000000" stroke-width="1" x1="671" x2="666" y1="556" y2="556"/>
<line fill="#000000" stroke="#000000" stroke-width="1" x1="661" x2="656" y1="557" y2="558"/>
<line fill="#000000" stroke="#000000" stroke-width="1" x1="651" x2="646" y1="559" y2="559"/>
<line fill="#000000" stroke="#000000" stroke-width="1" x1="641" x2="639" y1="560" y2="561"/>
<line fill="#000000" stroke="#000000" stroke-width="1" x1="649" x2="639" y1="552" y2="561"/>
<line fill="#000000" stroke="#000000" stroke-width="1" x1="651" x2="639" y1="566" y2="561"/>
<text font-family="Dialog" font-size="12" x="693" y="520">
&lt;&lt;extend&gt;&gt;</text>
<line fill="#000000" stroke="#000000" stroke-width="1" x1="848" x2="844" y1="545" y2="547"/>
<line fill="#000000" stroke="#000000" stroke-width="1" x1="840" x2="836" y1="550" y2="553"/>
<line fill="#000000" stroke="#000000" stroke-width="1" x1="832" x2="828" y1="556" y2="559"/>
<line fill="#000000" stroke="#000000" stroke-width="1" x1="824" x2="820" y1="562" y2="565"/>
<line fill="#000000" stroke="#000000" stroke-width="1" x1="816" x2="811" y1="567" y2="570"/>
<line fill="#000000" stroke="#000000" stroke-width="1" x1="807" x2="803" y1="573" y2="576"/>
<line fill="#000000" stroke="#000000" stroke-width="1" x1="799" x2="795" y1="579" y2="582"/>
<line fill="#000000" stroke="#000000" stroke-width="1" x1="791" x2="787" y1="585" y2="587"/>
<line fill="#000000" stroke="#000000" stroke-width="1" x1="783" x2="779" y1="590" y2="593"/>
<line fill="#000000" stroke="#000000" stroke-width="1" x1="774" x2="770" y1="596" y2="599"/>
<line fill="#000000" stroke="#000000" stroke-width="1" x1="766" x2="762" y1="602" y2="605"/>
<line fill="#000000" stroke="#000000" stroke-width="1" x1="758" x2="754" y1="608" y2="610"/>
<line fill="#000000" stroke="#000000" stroke-width="1" x1="750" x2="746" y1="613" y2="616"/>
<line fill="#000000" stroke="#000000" stroke-width="1" x1="741" x2="737" y1="619" y2="622"/>
<line fill="#000000" stroke="#000000" stroke-width="1" x1="733" x2="729" y1="625" y2="628"/>
<line fill="#000000" stroke="#000000" stroke-width="1" x1="725" x2="721" y1="630" y2="633"/>
<line fill="#000000" stroke="#000000" stroke-width="1" x1="717" x2="713" y1="636" y2="639"/>
<line fill="#000000" stroke="#000000" stroke-width="1" x1="709" x2="704" y1="642" y2="645"/>
<line fill="#000000" stroke="#000000" stroke-width="1" x1="700" x2="696" y1="648" y2="651"/>
<line fill="#000000" stroke="#000000" stroke-width="1" x1="692" x2="688" y1="653" y2="656"/>
<line fill="#000000" stroke="#000000" stroke-width="1" x1="684" x2="680" y1="659" y2="662"/>
<line fill="#000000" stroke="#000000" stroke-width="1" x1="676" x2="671" y1="665" y2="668"/>
<line fill="#000000" stroke="#000000" stroke-width="1" x1="667" x2="663" y1="671" y2="673"/>
<line fill="#000000" stroke="#000000" stroke-width="1" x1="659" x2="657" y1="676" y2="678"/>
<line fill="#000000" stroke="#000000" stroke-width="1" x1="662" x2="657" y1="665" y2="678"/>
<line fill="#000000" stroke="#000000" stroke-width="1" x1="670" x2="657" y1="676" y2="678"/>
<text font-family="Dialog" font-size="12" x="702" y="579">
&lt;&lt;extend&gt;&gt;</text>
<line fill="#000000" stroke="#000000" stroke-width="1" x1="868" x2="867" y1="547" y2="551"/>
<line fill="#000000" stroke="#000000" stroke-width="1" x1="865" x2="863" y1="556" y2="560"/>
<line fill="#000000" stroke="#000000" stroke-width="1" x1="861" x2="859" y1="565" y2="570"/>
<line fill="#000000" stroke="#000000" stroke-width="1" x1="857" x2="855" y1="574" y2="579"/>
<line fill="#000000" stroke="#000000" stroke-width="1" x1="853" x2="851" y1="583" y2="588"/>
<line fill="#000000" stroke="#000000" stroke-width="1" x1="849" x2="847" y1="593" y2="597"/>
<line fill="#000000" stroke="#000000" stroke-width="1" x1="845" x2="843" y1="602" y2="607"/>
<line fill="#000000" stroke="#000000" stroke-width="1" x1="841" x2="839" y1="611" y2="616"/>
<line fill="#000000" stroke="#000000" stroke-width="1" x1="837" x2="836" y1="620" y2="625"/>
<line fill="#000000" stroke="#000000" stroke-width="1" x1="834" x2="832" y1="630" y2="634"/>
<line fill="#000000" stroke="#000000" stroke-width="1" x1="830" x2="828" y1="639" y2="643"/>
<line fill="#000000" stroke="#000000" stroke-width="1" x1="826" x2="824" y1="648" y2="653"/>
<line fill="#000000" stroke="#000000" stroke-width="1" x1="822" x2="820" y1="657" y2="662"/>
<line fill="#000000" stroke="#000000" stroke-width="1" x1="818" x2="816" y1="667" y2="671"/>
<line fill="#000000" stroke="#000000" stroke-width="1" x1="814" x2="812" y1="676" y2="680"/>
<line fill="#000000" stroke="#000000" stroke-width="1" x1="810" x2="808" y1="685" y2="690"/>
<line fill="#000000" stroke="#000000" stroke-width="1" x1="806" x2="804" y1="694" y2="699"/>
<line fill="#000000" stroke="#000000" stroke-width="1" x1="803" x2="801" y1="703" y2="708"/>
<line fill="#000000" stroke="#000000" stroke-width="1" x1="799" x2="797" y1="713" y2="716"/>
<line fill="#000000" stroke="#000000" stroke-width="1" x1="795" x2="797" y1="702" y2="716"/>
<line fill="#000000" stroke="#000000" stroke-width="1" x1="808" x2="797" y1="707" y2="716"/>
<text font-family="Dialog" font-size="12" x="765" y="612">
&lt;&lt;extend&gt;&gt;</text>
<line fill="#000000" stroke="#000000" stroke-width="1" x1="893" x2="895" y1="547" y2="551"/>
<line fill="#000000" stroke="#000000" stroke-width="1" x1="898" x2="900" y1="555" y2="559"/>
<line fill="#000000" stroke="#000000" stroke-width="1" x1="903" x2="906" y1="563" y2="568"/>
<line fill="#000000" stroke="#000000" stroke-width="1" x1="908" x2="911" y1="572" y2="576"/>
<line fill="#000000" stroke="#000000" stroke-width="1" x1="914" x2="916" y1="580" y2="585"/>
<line fill="#000000" stroke="#000000" stroke-width="1" x1="919" x2="922" y1="589" y2="593"/>
<line fill="#000000" stroke="#000000" stroke-width="1" x1="924" x2="927" y1="597" y2="602"/>
<line fill="#000000" stroke="#000000" stroke-width="1" x1="930" x2="932" y1="606" y2="610"/>
<line fill="#000000" stroke="#000000" stroke-width="1" x1="935" x2="938" y1="614" y2="619"/>
<line fill="#000000" stroke="#000000" stroke-width="1" x1="940" x2="943" y1="623" y2="627"/>
<line fill="#000000" stroke="#000000" stroke-width="1" x1="946" x2="948" y1="631" y2="636"/>
<line fill="#000000" stroke="#000000" stroke-width="1" x1="951" x2="954" y1="640" y2="644"/>
<line fill="#000000" stroke="#000000" stroke-width="1" x1="956" x2="959" y1="648" y2="653"/>
<line fill="#000000" stroke="#000000" stroke-width="1" x1="962" x2="964" y1="657" y2="661"/>
<line fill="#000000" stroke="#000000" stroke-width="1" x1="967" x2="970" y1="665" y2="670"/>
<line fill="#000000" stroke="#000000" stroke-width="1" x1="972" x2="975" y1="674" y2="678"/>
<line fill="#000000" stroke="#000000" stroke-width="1" x1="978" x2="980" y1="682" y2="687"/>
<line fill="#000000" stroke="#000000" stroke-width="1" x1="983" x2="986" y1="691" y2="695"/>
<line fill="#000000" stroke="#000000" stroke-width="1" x1="988" x2="991" y1="699" y2="704"/>
<line fill="#000000" stroke="#000000" stroke-width="1" x1="994" x2="996" y1="708" y2="712"/>
<line fill="#000000" stroke="#000000" stroke-width="1" x1="986" x2="999" y1="709" y2="716"/>
<line fill="#000000" stroke="#000000" stroke-width="1" x1="998" x2="999" y1="702" y2="716"/>
<text font-family="Dialog" font-size="12" x="947" y="606">
&lt;&lt;extend&gt;&gt;</text>
<ellipse cx="1401" cy="587" fill="#000000" rx="139.0" ry="39.0" stroke="#000000" stroke-width="1"/>
<ellipse cx="1401" cy="587" fill="#ffffff" rx="138.0" ry="38.0" stroke="#ffffff" stroke-width="1"/>
<text font-family="Dialog" font-size="12" x="1274" y="588">
View List of the Popular/Now/TopRated Movies</text>
<polyline fill="none" points="969,251 1353,550" stroke="#333399" stroke-width="1"/>
<line fill="#000000" stroke="#000000" stroke-width="1" x1="1273" x2="1269" y1="571" y2="571"/>
<line fill="#000000" stroke="#000000" stroke-width="1" x1="1264" x2="1259" y1="570" y2="570"/>
<line fill="#000000" stroke="#000000" stroke-width="1" x1="1254" x2="1249" y1="569" y2="569"/>
<line fill="#000000" stroke="#000000" stroke-width="1" x1="1244" x2="1239" y1="568" y2="567"/>
<line fill="#000000" stroke="#000000" stroke-width="1" x1="1234" x2="1229" y1="567" y2="566"/>
<line fill="#000000" stroke="#000000" stroke-width="1" x1="1224" x2="1219" y1="566" y2="565"/>
<line fill="#000000" stroke="#000000" stroke-width="1" x1="1214" x2="1209" y1="564" y2="564"/>
<line fill="#000000" stroke="#000000" stroke-width="1" x1="1204" x2="1199" y1="563" y2="563"/>
<line fill="#000000" stroke="#000000" stroke-width="1" x1="1194" x2="1189" y1="562" y2="561"/>
<line fill="#000000" stroke="#000000" stroke-width="1" x1="1184" x2="1179" y1="561" y2="560"/>
<line fill="#000000" stroke="#000000" stroke-width="1" x1="1174" x2="1169" y1="560" y2="559"/>
<line fill="#000000" stroke="#000000" stroke-width="1" x1="1164" x2="1159" y1="558" y2="558"/>
<line fill="#000000" stroke="#000000" stroke-width="1" x1="1154" x2="1149" y1="557" y2="557"/>
<line fill="#000000" stroke="#000000" stroke-width="1" x1="1144" x2="1139" y1="556" y2="555"/>
<line fill="#000000" stroke="#000000" stroke-width="1" x1="1134" x2="1129" y1="555" y2="554"/>
<line fill="#000000" stroke="#000000" stroke-width="1" x1="1124" x2="1119" y1="554" y2="553"/>
<line fill="#000000" stroke="#000000" stroke-width="1" x1="1114" x2="1109" y1="552" y2="552"/>
<line fill="#000000" stroke="#000000" stroke-width="1" x1="1105" x2="1100" y1="551" y2="551"/>
<line fill="#000000" stroke="#000000" stroke-width="1" x1="1095" x2="1090" y1="550" y2="549"/>
<line fill="#000000" stroke="#000000" stroke-width="1" x1="1085" x2="1080" y1="549" y2="548"/>
<line fill="#000000" stroke="#000000" stroke-width="1" x1="1075" x2="1070" y1="548" y2="547"/>
<line fill="#000000" stroke="#000000" stroke-width="1" x1="1065" x2="1060" y1="546" y2="546"/>
<line fill="#000000" stroke="#000000" stroke-width="1" x1="1055" x2="1050" y1="545" y2="545"/>
<line fill="#000000" stroke="#000000" stroke-width="1" x1="1045" x2="1040" y1="544" y2="543"/>
<line fill="#000000" stroke="#000000" stroke-width="1" x1="1035" x2="1030" y1="543" y2="542"/>
<line fill="#000000" stroke="#000000" stroke-width="1" x1="1025" x2="1020" y1="542" y2="541"/>
<line fill="#000000" stroke="#000000" stroke-width="1" x1="1015" x2="1010" y1="540" y2="540"/>
<line fill="#000000" stroke="#000000" stroke-width="1" x1="1005" x2="1000" y1="539" y2="539"/>
<line fill="#000000" stroke="#000000" stroke-width="1" x1="995" x2="990" y1="538" y2="537"/>
<line fill="#000000" stroke="#000000" stroke-width="1" x1="985" x2="980" y1="537" y2="536"/>
<line fill="#000000" stroke="#000000" stroke-width="1" x1="975" x2="970" y1="536" y2="535"/>
<line fill="#000000" stroke="#000000" stroke-width="1" x1="965" x2="960" y1="534" y2="534"/>
<line fill="#000000" stroke="#000000" stroke-width="1" x1="955" x2="950" y1="533" y2="533"/>
<line fill="#000000" stroke="#000000" stroke-width="1" x1="945" x2="940" y1="532" y2="531"/>
<line fill="#000000" stroke="#000000" stroke-width="1" x1="952" x2="940" y1="525" y2="531"/>
<line fill="#000000" stroke="#000000" stroke-width="1" x1="951" x2="940" y1="539" y2="531"/>
<text font-family="Dialog" font-size="12" x="1078" y="525">
&lt;&lt;extend&gt;&gt;</text>
<ellipse cx="1421" cy="401" fill="#000000" rx="55.0" ry="21.0" stroke="#000000" stroke-width="1"/>
<ellipse cx="1421" cy="401" fill="#ffffff" rx="54.0" ry="20.0" stroke="#ffffff" stroke-width="1"/>
<text font-family="Dialog" font-size="12" x="1401" y="402">
Search</text>
<line fill="#000000" stroke="#000000" stroke-width="1" x1="1404" x2="1404" y1="548" y2="543"/>
<line fill="#000000" stroke="#000000" stroke-width="1" x1="1405" x2="1405" y1="538" y2="533"/>
<line fill="#000000" stroke="#000000" stroke-width="1" x1="1406" x2="1406" y1="528" y2="523"/>
<line fill="#000000" stroke="#000000" stroke-width="1" x1="1407" x2="1407" y1="518" y2="513"/>
<line fill="#000000" stroke="#000000" stroke-width="1" x1="1408" x2="1408" y1="508" y2="503"/>
<line fill="#000000" stroke="#000000" stroke-width="1" x1="1409" x2="1410" y1="498" y2="493"/>
<line fill="#000000" stroke="#000000" stroke-width="1" x1="1410" x2="1411" y1="488" y2="483"/>
<line fill="#000000" stroke="#000000" stroke-width="1" x1="1411" x2="1412" y1="478" y2="473"/>
<line fill="#000000" stroke="#000000" stroke-width="1" x1="1412" x2="1413" y1="468" y2="463"/>
<line fill="#000000" stroke="#000000" stroke-width="1" x1="1413" x2="1414" y1="458" y2="453"/>
<line fill="#000000" stroke="#000000" stroke-width="1" x1="1415" x2="1415" y1="448" y2="443"/>
<line fill="#000000" stroke="#000000" stroke-width="1" x1="1416" x2="1416" y1="438" y2="433"/>
<line fill="#000000" stroke="#000000" stroke-width="1" x1="1417" x2="1417" y1="428" y2="423"/>
<line fill="#000000" stroke="#000000" stroke-width="1" x1="1423" x2="1418" y1="433" y2="421"/>
<line fill="#000000" stroke="#000000" stroke-width="1" x1="1409" x2="1418" y1="432" y2="421"/>
<text font-family="Dialog" font-size="12" x="1343" y="477">
&lt;&lt;extend&gt;&gt;</text>
<ellipse cx="1151" cy="163" fill="#000000" rx="65.0" ry="23.0" stroke="#000000" stroke-width="1"/>
<ellipse cx="1151" cy="163" fill="#ffffff" rx="64.0" ry="22.0" stroke="#ffffff" stroke-width="1"/>
<text font-family="Dialog" font-size="12" x="1101" y="164">
View List of Actors</text>
<polyline fill="none" points="973,189 1090,171" stroke="#000000" stroke-width="1"/>
<line fill="#000000" stroke="#000000" stroke-width="1" x1="1145" x2="1144" y1="185" y2="189"/>
<line fill="#000000" stroke="#000000" stroke-width="1" x1="1143" x2="1142" y1="194" y2="199"/>
<line fill="#000000" stroke="#000000" stroke-width="1" x1="1141" x2="1140" y1="204" y2="209"/>
<line fill="#000000" stroke="#000000" stroke-width="1" x1="1139" x2="1137" y1="214" y2="219"/>
<line fill="#000000" stroke="#000000" stroke-width="1" x1="1136" x2="1135" y1="223" y2="228"/>
<line fill="#000000" stroke="#000000" stroke-width="1" x1="1134" x2="1133" y1="233" y2="238"/>
<line fill="#000000" stroke="#000000" stroke-width="1" x1="1132" x2="1130" y1="243" y2="248"/>
<line fill="#000000" stroke="#000000" stroke-width="1" x1="1129" x2="1128" y1="253" y2="258"/>
<line fill="#000000" stroke="#000000" stroke-width="1" x1="1127" x2="1126" y1="262" y2="267"/>
<line fill="#000000" stroke="#000000" stroke-width="1" x1="1125" x2="1124" y1="272" y2="277"/>
<line fill="#000000" stroke="#000000" stroke-width="1" x1="1122" x2="1121" y1="282" y2="287"/>
<line fill="#000000" stroke="#000000" stroke-width="1" x1="1120" x2="1119" y1="292" y2="297"/>
<line fill="#000000" stroke="#000000" stroke-width="1" x1="1118" x2="1117" y1="301" y2="306"/>
<line fill="#000000" stroke="#000000" stroke-width="1" x1="1115" x2="1114" y1="311" y2="316"/>
<line fill="#000000" stroke="#000000" stroke-width="1" x1="1113" x2="1112" y1="321" y2="326"/>
<line fill="#000000" stroke="#000000" stroke-width="1" x1="1111" x2="1110" y1="331" y2="336"/>
<line fill="#000000" stroke="#000000" stroke-width="1" x1="1109" x2="1107" y1="340" y2="345"/>
<line fill="#000000" stroke="#000000" stroke-width="1" x1="1106" x2="1105" y1="350" y2="355"/>
<line fill="#000000" stroke="#000000" stroke-width="1" x1="1104" x2="1103" y1="360" y2="365"/>
<line fill="#000000" stroke="#000000" stroke-width="1" x1="1102" x2="1100" y1="370" y2="374"/>
<line fill="#000000" stroke="#000000" stroke-width="1" x1="1099" x2="1098" y1="379" y2="384"/>
<line fill="#000000" stroke="#000000" stroke-width="1" x1="1097" x2="1096" y1="389" y2="394"/>
<line fill="#000000" stroke="#000000" stroke-width="1" x1="1095" x2="1093" y1="399" y2="404"/>
<line fill="#000000" stroke="#000000" stroke-width="1" x1="1092" x2="1091" y1="409" y2="413"/>
<line fill="#000000" stroke="#000000" stroke-width="1" x1="1090" x2="1089" y1="418" y2="423"/>
<line fill="#000000" stroke="#000000" stroke-width="1" x1="1088" x2="1087" y1="428" y2="433"/>
<line fill="#000000" stroke="#000000" stroke-width="1" x1="1085" x2="1084" y1="438" y2="443"/>
<line fill="#000000" stroke="#000000" stroke-width="1" x1="1083" x2="1082" y1="448" y2="452"/>
<line fill="#000000" stroke="#000000" stroke-width="1" x1="1081" x2="1080" y1="457" y2="462"/>
<line fill="#000000" stroke="#000000" stroke-width="1" x1="1078" x2="1077" y1="467" y2="472"/>
<line fill="#000000" stroke="#000000" stroke-width="1" x1="1076" x2="1075" y1="477" y2="482"/>
<line fill="#000000" stroke="#000000" stroke-width="1" x1="1074" x2="1073" y1="487" y2="491"/>
<line fill="#000000" stroke="#000000" stroke-width="1" x1="1072" x2="1070" y1="496" y2="501"/>
<line fill="#000000" stroke="#000000" stroke-width="1" x1="1069" x2="1068" y1="506" y2="511"/>
<line fill="#000000" stroke="#000000" stroke-width="1" x1="1067" x2="1066" y1="516" y2="521"/>
<line fill="#000000" stroke="#000000" stroke-width="1" x1="1065" x2="1063" y1="526" y2="530"/>
<line fill="#000000" stroke="#000000" stroke-width="1" x1="1062" x2="1061" y1="535" y2="540"/>
<line fill="#000000" stroke="#000000" stroke-width="1" x1="1060" x2="1059" y1="545" y2="550"/>
<line fill="#000000" stroke="#000000" stroke-width="1" x1="1058" x2="1056" y1="555" y2="560"/>
<line fill="#000000" stroke="#000000" stroke-width="1" x1="1055" x2="1054" y1="564" y2="569"/>
<line fill="#000000" stroke="#000000" stroke-width="1" x1="1053" x2="1052" y1="574" y2="579"/>
<line fill="#000000" stroke="#000000" stroke-width="1" x1="1051" x2="1050" y1="584" y2="589"/>
<line fill="#000000" stroke="#000000" stroke-width="1" x1="1048" x2="1047" y1="594" y2="599"/>
<line fill="#000000" stroke="#000000" stroke-width="1" x1="1046" x2="1045" y1="603" y2="608"/>
<line fill="#000000" stroke="#000000" stroke-width="1" x1="1044" x2="1043" y1="613" y2="618"/>
<line fill="#000000" stroke="#000000" stroke-width="1" x1="1041" x2="1040" y1="623" y2="628"/>
<line fill="#000000" stroke="#000000" stroke-width="1" x1="1039" x2="1038" y1="633" y2="638"/>
<line fill="#000000" stroke="#000000" stroke-width="1" x1="1037" x2="1036" y1="642" y2="647"/>
<line fill="#000000" stroke="#000000" stroke-width="1" x1="1035" x2="1033" y1="652" y2="657"/>
<line fill="#000000" stroke="#000000" stroke-width="1" x1="1032" x2="1031" y1="662" y2="667"/>
<line fill="#000000" stroke="#000000" stroke-width="1" x1="1030" x2="1029" y1="672" y2="677"/>
<line fill="#000000" stroke="#000000" stroke-width="1" x1="1028" x2="1026" y1="681" y2="686"/>
<line fill="#000000" stroke="#000000" stroke-width="1" x1="1025" x2="1024" y1="691" y2="696"/>
<line fill="#000000" stroke="#000000" stroke-width="1" x1="1023" x2="1022" y1="701" y2="706"/>
<line fill="#000000" stroke="#000000" stroke-width="1" x1="1021" x2="1019" y1="711" y2="716"/>
<line fill="#000000" stroke="#000000" stroke-width="1" x1="1014" x2="1019" y1="702" y2="716"/>
<line fill="#000000" stroke="#000000" stroke-width="1" x1="1028" x2="1019" y1="705" y2="716"/>
<text font-family="Dialog" font-size="12" x="1013" y="441">
&lt;&lt;extend&gt;&gt;</text>
<line fill="#000000" stroke="#000000" stroke-width="1" x1="1175" x2="1178" y1="184" y2="187"/>
<line fill="#000000" stroke="#000000" stroke-width="1" x1="1182" x2="1186" y1="190" y2="193"/>
<line fill="#000000" stroke="#000000" stroke-width="1" x1="1190" x2="1193" y1="197" y2="200"/>
<line fill="#000000" stroke="#000000" stroke-width="1" x1="1197" x2="1201" y1="203" y2="207"/>
<line fill="#000000" stroke="#000000" stroke-width="1" x1="1205" x2="1208" y1="210" y2="213"/>
<line fill="#000000" stroke="#000000" stroke-width="1" x1="1212" x2="1216" y1="217" y2="220"/>
<line fill="#000000" stroke="#000000" stroke-width="1" x1="1220" x2="1223" y1="223" y2="226"/>
<line fill="#000000" stroke="#000000" stroke-width="1" x1="1227" x2="1231" y1="230" y2="233"/>
<line fill="#000000" stroke="#000000" stroke-width="1" x1="1235" x2="1238" y1="236" y2="240"/>
<line fill="#000000" stroke="#000000" stroke-width="1" x1="1242" x2="1246" y1="243" y2="246"/>
<line fill="#000000" stroke="#000000" stroke-width="1" x1="1250" x2="1253" y1="250" y2="253"/>
<line fill="#000000" stroke="#000000" stroke-width="1" x1="1257" x2="1261" y1="256" y2="260"/>
<line fill="#000000" stroke="#000000" stroke-width="1" x1="1265" x2="1268" y1="263" y2="266"/>
<line fill="#000000" stroke="#000000" stroke-width="1" x1="1272" x2="1276" y1="269" y2="273"/>
<line fill="#000000" stroke="#000000" stroke-width="1" x1="1280" x2="1283" y1="276" y2="279"/>
<line fill="#000000" stroke="#000000" stroke-width="1" x1="1287" x2="1291" y1="283" y2="286"/>
<line fill="#000000" stroke="#000000" stroke-width="1" x1="1295" x2="1299" y1="289" y2="293"/>
<line fill="#000000" stroke="#000000" stroke-width="1" x1="1302" x2="1306" y1="296" y2="299"/>
<line fill="#000000" stroke="#000000" stroke-width="1" x1="1310" x2="1314" y1="302" y2="306"/>
<line fill="#000000" stroke="#000000" stroke-width="1" x1="1317" x2="1321" y1="309" y2="312"/>
<line fill="#000000" stroke="#000000" stroke-width="1" x1="1325" x2="1329" y1="316" y2="319"/>
<line fill="#000000" stroke="#000000" stroke-width="1" x1="1332" x2="1336" y1="322" y2="326"/>
<line fill="#000000" stroke="#000000" stroke-width="1" x1="1340" x2="1344" y1="329" y2="332"/>
<line fill="#000000" stroke="#000000" stroke-width="1" x1="1347" x2="1351" y1="336" y2="339"/>
<line fill="#000000" stroke="#000000" stroke-width="1" x1="1355" x2="1359" y1="342" y2="345"/>
<line fill="#000000" stroke="#000000" stroke-width="1" x1="1362" x2="1366" y1="349" y2="352"/>
<line fill="#000000" stroke="#000000" stroke-width="1" x1="1370" x2="1374" y1="355" y2="359"/>
<line fill="#000000" stroke="#000000" stroke-width="1" x1="1377" x2="1381" y1="362" y2="365"/>
<line fill="#000000" stroke="#000000" stroke-width="1" x1="1385" x2="1389" y1="369" y2="372"/>
<line fill="#000000" stroke="#000000" stroke-width="1" x1="1392" x2="1396" y1="375" y2="379"/>
<line fill="#000000" stroke="#000000" stroke-width="1" x1="1385" x2="1399" y1="378" y2="381"/>
<line fill="#000000" stroke="#000000" stroke-width="1" x1="1394" x2="1399" y1="367" y2="381"/>
<text font-family="Dialog" font-size="12" x="1273" y="263">
&lt;&lt;include&gt;&gt;</text>
<ellipse cx="623" cy="456" fill="#000000" rx="89.0" ry="28.0" stroke="#000000" stroke-width="1"/>
<ellipse cx="623" cy="456" fill="#ffffff" rx="88.0" ry="27.0" stroke="#ffffff" stroke-width="1"/>
<text font-family="Dialog" font-size="12" x="548" y="457">
Add/Remove Favorite Films</text>
<line fill="#000000" stroke="#000000" stroke-width="1" x1="826" x2="822" y1="510" y2="509"/>
<line fill="#000000" stroke="#000000" stroke-width="1" x1="817" x2="812" y1="508" y2="507"/>
<line fill="#000000" stroke="#000000" stroke-width="1" x1="807" x2="802" y1="505" y2="504"/>
<line fill="#000000" stroke="#000000" stroke-width="1" x1="797" x2="792" y1="503" y2="501"/>
<line fill="#000000" stroke="#000000" stroke-width="1" x1="788" x2="783" y1="500" y2="499"/>
<line fill="#000000" stroke="#000000" stroke-width="1" x1="778" x2="773" y1="498" y2="496"/>
<line fill="#000000" stroke="#000000" stroke-width="1" x1="768" x2="763" y1="495" y2="494"/>
<line fill="#000000" stroke="#000000" stroke-width="1" x1="758" x2="754" y1="492" y2="491"/>
<line fill="#000000" stroke="#000000" stroke-width="1" x1="749" x2="744" y1="490" y2="489"/>
<line fill="#000000" stroke="#000000" stroke-width="1" x1="739" x2="734" y1="487" y2="486"/>
<line fill="#000000" stroke="#000000" stroke-width="1" x1="729" x2="724" y1="485" y2="483"/>
<line fill="#000000" stroke="#000000" stroke-width="1" x1="720" x2="715" y1="482" y2="481"/>
<line fill="#000000" stroke="#000000" stroke-width="1" x1="710" x2="705" y1="480" y2="478"/>
<line fill="#000000" stroke="#000000" stroke-width="1" x1="700" x2="695" y1="477" y2="476"/>
<line fill="#000000" stroke="#000000" stroke-width="1" x1="703" x2="690" y1="470" y2="474"/>
<line fill="#000000" stroke="#000000" stroke-width="1" x1="699" x2="690" y1="483" y2="474"/>
<text font-family="Dialog" font-size="12" x="733" y="463">
&lt;&lt;extend&gt;&gt;</text>
<ellipse cx="788" cy="330" fill="#000000" rx="94.0" ry="30.0" stroke="#000000" stroke-width="1"/>
<ellipse cx="788" cy="330" fill="#ffffff" rx="93.0" ry="29.0" stroke="#ffffff" stroke-width="1"/>
<text font-family="Dialog" font-size="12" x="707" y="331">
View List of the Favorite Films</text>
<polyline fill="none" points="841,305 959,251" stroke="#000000" stroke-width="1"/>
<line fill="#000000" stroke="#000000" stroke-width="1" x1="751" x2="748" y1="357" y2="360"/>
<line fill="#000000" stroke="#000000" stroke-width="1" x1="744" x2="740" y1="363" y2="366"/>
<line fill="#000000" stroke="#000000" stroke-width="1" x1="736" x2="732" y1="369" y2="372"/>
<line fill="#000000" stroke="#000000" stroke-width="1" x1="728" x2="724" y1="375" y2="378"/>
<line fill="#000000" stroke="#000000" stroke-width="1" x1="720" x2="716" y1="381" y2="384"/>
<line fill="#000000" stroke="#000000" stroke-width="1" x1="712" x2="708" y1="387" y2="390"/>
<line fill="#000000" stroke="#000000" stroke-width="1" x1="704" x2="700" y1="393" y2="396"/>
<line fill="#000000" stroke="#000000" stroke-width="1" x1="696" x2="692" y1="399" y2="403"/>
<line fill="#000000" stroke="#000000" stroke-width="1" x1="688" x2="684" y1="406" y2="409"/>
<line fill="#000000" stroke="#000000" stroke-width="1" x1="680" x2="676" y1="412" y2="415"/>
<line fill="#000000" stroke="#000000" stroke-width="1" x1="672" x2="668" y1="418" y2="421"/>
<line fill="#000000" stroke="#000000" stroke-width="1" x1="664" x2="660" y1="424" y2="427"/>
<line fill="#000000" stroke="#000000" stroke-width="1" x1="661" x2="656" y1="417" y2="430"/>
<line fill="#000000" stroke="#000000" stroke-width="1" x1="669" x2="656" y1="428" y2="430"/>
<text font-family="Dialog" font-size="12" x="650" y="361">
&lt;&lt;extend&gt;&gt;</text>
<ellipse cx="1390" cy="147" fill="#000000" rx="64.0" ry="23.0" stroke="#000000" stroke-width="1"/>
<ellipse cx="1390" cy="147" fill="#ffffff" rx="63.0" ry="22.0" stroke="#ffffff" stroke-width="1"/>
<text font-family="Dialog" font-size="12" x="1341" y="148">
View Actor Details</text>
<line fill="#000000" stroke="#000000" stroke-width="1" x1="1214" x2="1219" y1="158" y2="158"/>
<line fill="#000000" stroke="#000000" stroke-width="1" x1="1224" x2="1229" y1="158" y2="157"/>
<line fill="#000000" stroke="#000000" stroke-width="1" x1="1234" x2="1239" y1="157" y2="157"/>
<line fill="#000000" stroke="#000000" stroke-width="1" x1="1244" x2="1249" y1="156" y2="156"/>
<line fill="#000000" stroke="#000000" stroke-width="1" x1="1254" x2="1259" y1="156" y2="155"/>
<line fill="#000000" stroke="#000000" stroke-width="1" x1="1264" x2="1269" y1="155" y2="155"/>
<line fill="#000000" stroke="#000000" stroke-width="1" x1="1274" x2="1279" y1="154" y2="154"/>
<line fill="#000000" stroke="#000000" stroke-width="1" x1="1284" x2="1289" y1="153" y2="153"/>
<line fill="#000000" stroke="#000000" stroke-width="1" x1="1294" x2="1299" y1="153" y2="152"/>
<line fill="#000000" stroke="#000000" stroke-width="1" x1="1304" x2="1309" y1="152" y2="152"/>
<line fill="#000000" stroke="#000000" stroke-width="1" x1="1314" x2="1319" y1="151" y2="151"/>
<line fill="#000000" stroke="#000000" stroke-width="1" x1="1324" x2="1326" y1="151" y2="150"/>
<line fill="#000000" stroke="#000000" stroke-width="1" x1="1314" x2="1326" y1="157" y2="150"/>
<line fill="#000000" stroke="#000000" stroke-width="1" x1="1313" x2="1326" y1="143" y2="150"/>
<text font-family="Dialog" font-size="12" x="1237" y="129">
&lt;&lt;extend&gt;&gt;</text>
<ellipse cx="1579" cy="216" fill="#000000" rx="85.0" ry="28.0" stroke="#000000" stroke-width="1"/>
<ellipse cx="1579" cy="216" fill="#ffffff" rx="84.0" ry="27.0" stroke="#ffffff" stroke-width="1"/>
<text font-family="Dialog" font-size="12" x="1507" y="217">
View Actor's Films by Type</text>
<line fill="#000000" stroke="#000000" stroke-width="1" x1="1434" x2="1438" y1="163" y2="164"/>
<line fill="#000000" stroke="#000000" stroke-width="1" x1="1443" x2="1448" y1="166" y2="168"/>
<line fill="#000000" stroke="#000000" stroke-width="1" x1="1452" x2="1457" y1="169" y2="171"/>
<line fill="#000000" stroke="#000000" stroke-width="1" x1="1462" x2="1467" y1="173" y2="175"/>
<line fill="#000000" stroke="#000000" stroke-width="1" x1="1471" x2="1476" y1="176" y2="178"/>
<line fill="#000000" stroke="#000000" stroke-width="1" x1="1481" x2="1486" y1="180" y2="181"/>
<line fill="#000000" stroke="#000000" stroke-width="1" x1="1490" x2="1495" y1="183" y2="185"/>
<line fill="#000000" stroke="#000000" stroke-width="1" x1="1500" x2="1504" y1="187" y2="188"/>
<line fill="#000000" stroke="#000000" stroke-width="1" x1="1509" x2="1514" y1="190" y2="192"/>
<line fill="#000000" stroke="#000000" stroke-width="1" x1="1519" x2="1522" y1="193" y2="195"/>
<line fill="#000000" stroke="#000000" stroke-width="1" x1="1508" x2="1522" y1="197" y2="195"/>
<line fill="#000000" stroke="#000000" stroke-width="1" x1="1513" x2="1522" y1="184" y2="195"/>
<text font-family="Dialog" font-size="12" x="1455" y="146">
&lt;&lt;extend&gt;&gt;</text>
<line fill="#000000" stroke="#000000" stroke-width="1" x1="1555" x2="1552" y1="242" y2="245"/>
<line fill="#000000" stroke="#000000" stroke-width="1" x1="1549" x2="1546" y1="249" y2="253"/>
<line fill="#000000" stroke="#000000" stroke-width="1" x1="1543" x2="1539" y1="257" y2="261"/>
<line fill="#000000" stroke="#000000" stroke-width="1" x1="1536" x2="1533" y1="264" y2="268"/>
<line fill="#000000" stroke="#000000" stroke-width="1" x1="1530" x2="1526" y1="272" y2="276"/>
<line fill="#000000" stroke="#000000" stroke-width="1" x1="1523" x2="1520" y1="280" y2="284"/>
<line fill="#000000" stroke="#000000" stroke-width="1" x1="1517" x2="1513" y1="287" y2="291"/>
<line fill="#000000" stroke="#000000" stroke-width="1" x1="1510" x2="1507" y1="295" y2="299"/>
<line fill="#000000" stroke="#000000" stroke-width="1" x1="1504" x2="1500" y1="303" y2="306"/>
<line fill="#000000" stroke="#000000" stroke-width="1" x1="1497" x2="1494" y1="310" y2="314"/>
<line fill="#000000" stroke="#000000" stroke-width="1" x1="1491" x2="1487" y1="318" y2="322"/>
<line fill="#000000" stroke="#000000" stroke-width="1" x1="1484" x2="1481" y1="326" y2="329"/>
<line fill="#000000" stroke="#000000" stroke-width="1" x1="1478" x2="1474" y1="333" y2="337"/>
<line fill="#000000" stroke="#000000" stroke-width="1" x1="1471" x2="1468" y1="341" y2="345"/>
<line fill="#000000" stroke="#000000" stroke-width="1" x1="1465" x2="1461" y1="348" y2="352"/>
<line fill="#000000" stroke="#000000" stroke-width="1" x1="1458" x2="1455" y1="356" y2="360"/>
<line fill="#000000" stroke="#000000" stroke-width="1" x1="1452" x2="1449" y1="364" y2="368"/>
<line fill="#000000" stroke="#000000" stroke-width="1" x1="1445" x2="1442" y1="371" y2="375"/>
<line fill="#000000" stroke="#000000" stroke-width="1" x1="1439" x2="1437" y1="379" y2="381"/>
<line fill="#000000" stroke="#000000" stroke-width="1" x1="1439" x2="1437" y1="367" y2="381"/>
<line fill="#000000" stroke="#000000" stroke-width="1" x1="1450" x2="1437" y1="376" y2="381"/>
<text font-family="Dialog" font-size="12" x="1436" y="295">
&lt;&lt;include&gt;&gt;</text>
<line fill="#000000" stroke="#000000" stroke-width="1" x1="1527" x2="1523" y1="238" y2="240"/>
<line fill="#000000" stroke="#000000" stroke-width="1" x1="1518" x2="1514" y1="242" y2="244"/>
<line fill="#000000" stroke="#000000" stroke-width="1" x1="1509" x2="1505" y1="246" y2="248"/>
<line fill="#000000" stroke="#000000" stroke-width="1" x1="1500" x2="1495" y1="250" y2="252"/>
<line fill="#000000" stroke="#000000" stroke-width="1" x1="1491" x2="1486" y1="254" y2="256"/>
<line fill="#000000" stroke="#000000" stroke-width="1" x1="1482" x2="1477" y1="258" y2="260"/>
<line fill="#000000" stroke="#000000" stroke-width="1" x1="1473" x2="1468" y1="262" y2="264"/>
<line fill="#000000" stroke="#000000" stroke-width="1" x1="1463" x2="1459" y1="266" y2="268"/>
<line fill="#000000" stroke="#000000" stroke-width="1" x1="1454" x2="1450" y1="270" y2="272"/>
<line fill="#000000" stroke="#000000" stroke-width="1" x1="1445" x2="1441" y1="274" y2="276"/>
<line fill="#000000" stroke="#000000" stroke-width="1" x1="1436" x2="1431" y1="278" y2="280"/>
<line fill="#000000" stroke="#000000" stroke-width="1" x1="1427" x2="1422" y1="282" y2="284"/>
<line fill="#000000" stroke="#000000" stroke-width="1" x1="1418" x2="1413" y1="286" y2="288"/>
<line fill="#000000" stroke="#000000" stroke-width="1" x1="1408" x2="1404" y1="290" y2="292"/>
<line fill="#000000" stroke="#000000" stroke-width="1" x1="1399" x2="1395" y1="294" y2="296"/>
<line fill="#000000" stroke="#000000" stroke-width="1" x1="1390" x2="1386" y1="298" y2="300"/>
<line fill="#000000" stroke="#000000" stroke-width="1" x1="1381" x2="1376" y1="302" y2="304"/>
<line fill="#000000" stroke="#000000" stroke-width="1" x1="1372" x2="1367" y1="306" y2="308"/>
<line fill="#000000" stroke="#000000" stroke-width="1" x1="1363" x2="1358" y1="310" y2="312"/>
<line fill="#000000" stroke="#000000" stroke-width="1" x1="1354" x2="1349" y1="314" y2="316"/>
<line fill="#000000" stroke="#000000" stroke-width="1" x1="1344" x2="1340" y1="318" y2="320"/>
<line fill="#000000" stroke="#000000" stroke-width="1" x1="1335" x2="1331" y1="322" y2="324"/>
<line fill="#000000" stroke="#000000" stroke-width="1" x1="1326" x2="1322" y1="326" y2="328"/>
<line fill="#000000" stroke="#000000" stroke-width="1" x1="1317" x2="1312" y1="330" y2="332"/>
<line fill="#000000" stroke="#000000" stroke-width="1" x1="1308" x2="1303" y1="334" y2="336"/>
<line fill="#000000" stroke="#000000" stroke-width="1" x1="1299" x2="1294" y1="338" y2="340"/>
<line fill="#000000" stroke="#000000" stroke-width="1" x1="1289" x2="1285" y1="342" y2="344"/>
<line fill="#000000" stroke="#000000" stroke-width="1" x1="1280" x2="1276" y1="346" y2="348"/>
<line fill="#000000" stroke="#000000" stroke-width="1" x1="1271" x2="1267" y1="350" y2="352"/>
<line fill="#000000" stroke="#000000" stroke-width="1" x1="1262" x2="1257" y1="354" y2="356"/>
<line fill="#000000" stroke="#000000" stroke-width="1" x1="1253" x2="1248" y1="358" y2="360"/>
<line fill="#000000" stroke="#000000" stroke-width="1" x1="1244" x2="1239" y1="362" y2="364"/>
<line fill="#000000" stroke="#000000" stroke-width="1" x1="1235" x2="1230" y1="366" y2="368"/>
<line fill="#000000" stroke="#000000" stroke-width="1" x1="1225" x2="1221" y1="370" y2="372"/>
<line fill="#000000" stroke="#000000" stroke-width="1" x1="1216" x2="1212" y1="374" y2="376"/>
<line fill="#000000" stroke="#000000" stroke-width="1" x1="1207" x2="1202" y1="378" y2="380"/>
<line fill="#000000" stroke="#000000" stroke-width="1" x1="1198" x2="1193" y1="382" y2="384"/>
<line fill="#000000" stroke="#000000" stroke-width="1" x1="1189" x2="1184" y1="387" y2="389"/>
<line fill="#000000" stroke="#000000" stroke-width="1" x1="1180" x2="1175" y1="391" y2="393"/>
<line fill="#000000" stroke="#000000" stroke-width="1" x1="1170" x2="1166" y1="395" y2="397"/>
<line fill="#000000" stroke="#000000" stroke-width="1" x1="1161" x2="1157" y1="399" y2="401"/>
<line fill="#000000" stroke="#000000" stroke-width="1" x1="1152" x2="1148" y1="403" y2="405"/>
<line fill="#000000" stroke="#000000" stroke-width="1" x1="1143" x2="1138" y1="407" y2="409"/>
<line fill="#000000" stroke="#000000" stroke-width="1" x1="1134" x2="1129" y1="411" y2="413"/>
<line fill="#000000" stroke="#000000" stroke-width="1" x1="1125" x2="1120" y1="415" y2="417"/>
<line fill="#000000" stroke="#000000" stroke-width="1" x1="1116" x2="1111" y1="419" y2="421"/>
<line fill="#000000" stroke="#000000" stroke-width="1" x1="1106" x2="1102" y1="423" y2="425"/>
<line fill="#000000" stroke="#000000" stroke-width="1" x1="1097" x2="1093" y1="427" y2="429"/>
<line fill="#000000" stroke="#000000" stroke-width="1" x1="1088" x2="1083" y1="431" y2="433"/>
<line fill="#000000" stroke="#000000" stroke-width="1" x1="1079" x2="1074" y1="435" y2="437"/>
<line fill="#000000" stroke="#000000" stroke-width="1" x1="1070" x2="1065" y1="439" y2="441"/>
<line fill="#000000" stroke="#000000" stroke-width="1" x1="1061" x2="1056" y1="443" y2="445"/>
<line fill="#000000" stroke="#000000" stroke-width="1" x1="1051" x2="1047" y1="447" y2="449"/>
<line fill="#000000" stroke="#000000" stroke-width="1" x1="1042" x2="1038" y1="451" y2="453"/>
<line fill="#000000" stroke="#000000" stroke-width="1" x1="1033" x2="1029" y1="455" y2="457"/>
<line fill="#000000" stroke="#000000" stroke-width="1" x1="1024" x2="1019" y1="459" y2="461"/>
<line fill="#000000" stroke="#000000" stroke-width="1" x1="1015" x2="1010" y1="463" y2="465"/>
<line fill="#000000" stroke="#000000" stroke-width="1" x1="1006" x2="1001" y1="467" y2="469"/>
<line fill="#000000" stroke="#000000" stroke-width="1" x1="996" x2="992" y1="471" y2="473"/>
<line fill="#000000" stroke="#000000" stroke-width="1" x1="987" x2="983" y1="475" y2="477"/>
<line fill="#000000" stroke="#000000" stroke-width="1" x1="978" x2="974" y1="479" y2="481"/>
<line fill="#000000" stroke="#000000" stroke-width="1" x1="969" x2="964" y1="483" y2="485"/>
<line fill="#000000" stroke="#000000" stroke-width="1" x1="960" x2="955" y1="487" y2="489"/>
<line fill="#000000" stroke="#000000" stroke-width="1" x1="951" x2="946" y1="491" y2="493"/>
<line fill="#000000" stroke="#000000" stroke-width="1" x1="942" x2="937" y1="495" y2="497"/>
<line fill="#000000" stroke="#000000" stroke-width="1" x1="932" x2="928" y1="499" y2="501"/>
<line fill="#000000" stroke="#000000" stroke-width="1" x1="923" x2="920" y1="503" y2="505"/>
<line fill="#000000" stroke="#000000" stroke-width="1" x1="928" x2="920" y1="493" y2="505"/>
<line fill="#000000" stroke="#000000" stroke-width="1" x1="933" x2="920" y1="506" y2="505"/>
<text font-family="Dialog" font-size="12" x="1180" y="338">
&lt;&lt;extend&gt;&gt;</text>
</svg>
